# xmcd
#
# Track frame offsets:
#	150
#	8617
#	19235
#	28950
#	42952
#	54052
#	66207
#	77375
#	87212
#	97390
#	108610
#	119765
#	131662
#	142607
#	156902
#	167980
#	179920
#	188567
#	201600
#	214602
#	227602
#	239317
#	254247
#	267337
#	276547
#	286567
#	301217
#	313840
#	324400
#	337970
#
# Disc length: 4674
#
# Revision: 2
# Processed by: cddbd v1.5.1PL0 Copyright (c) Steve Scherf et al.
# Submitted via: audiograbber 1.83.01
# Normalized: r1:DSETVAR1
#
DISCID=bc12401e
DTITLE=Various Artist - Lost And Found D2: The Blue Rock Records Story
DYEAR=1998
DGENRE=R&B
TTITLE0=The Shirelles - Sweet, Sweet Lovin'
TTITLE1=Jr. Wells - You're Tuff Enough
TTITLE2=Johnny Moore - Such A Wonderful Feeling
TTITLE3=Kenny Carlton - Lost and Found
TTITLE4=Bobby Hutton - Ooo Baby
TTITLE5=The Commotions - Handy Man
TTITLE6=Brothers Of Love - Yes I Am
TTITLE7=Johnny and Jake - It's A Mess I Tell You
TTITLE8=Shirley Wahls and Spouse - Cry Myself To Sleep
TTITLE9=Renaldo Domino - Don't Go Away
TTITLE10=Otis Leavill - Let Me Live
TTITLE11=Tony and Lynn - We're So Much In Love
TTITLE12=The Shirelles - Call Me
TTITLE13=Alcon Shades - All Is Forgiven
TTITLE14=Johnny Moore - Lonely Heart In The City
TTITLE15=The Adventures - Something Bad (It's Happening)
TTITLE16=The Festivals - Checkin' Out
TTITLE17=Benny and Tina - Over My Dead Body
TTITLE18=Benny and Tina - This Love Is Real
TTITLE19=Chino Feaster - A Grown Man Cry
TTITLE20=Jr. Parker - Ain't Gon' A Be No Cuttin' Loose
TTITLE21=Joyce Dunn - Turn Away From Darkness
TTITLE22=Cynthia and The Imaginations - The Love You Forgot
TTITLE23=Brenda Duff - Love Ain't Never Hurt Nobody
TTITLE24=Jr. Wells - Party Power
TTITLE25=Timothy Wilson - I Wanna Know Right Now
TTITLE26=Roy Hytower - I'm In Your Corner
TTITLE27=Roy Hytower - The Undertaker
TTITLE28=Timothy Wilson - Are You Really Happy
TTITLE29=The Cat-Keys - I've Lived The Same Life Too
EXTD=
EXTT0=
EXTT1=
EXTT2=
EXTT3=
EXTT4=
EXTT5=
EXTT6=
EXTT7=
EXTT8=
EXTT9=
EXTT10=
EXTT11=
EXTT12=
EXTT13=
EXTT14=
EXTT15=
EXTT16=
EXTT17=
EXTT18=
EXTT19=
EXTT20=
EXTT21=
EXTT22=
EXTT23=
EXTT24=
EXTT25=
EXTT26=
EXTT27=
EXTT28=
EXTT29=
PLAYORDER=
